<svg xmlns="http://www.w3.org/2000/svg" viewBox="0 0 632.06 200"><defs><style>.cls-1{fill:none;stroke:#000;stroke-miterlimit:10;stroke-width:3px;}.cls-2{font-size:72px;font-family:Almondia-Medium, Almondia;}</style></defs><title>Logo</title><g id="Layer_1" data-name="Layer 1"><line class="cls-1" x1="87.35" y1="4.76" x2="87.35" y2="195.24"/><line class="cls-1" x1="4.87" y1="52.38" x2="169.83" y2="147.62"/><line class="cls-1" x1="4.87" y1="147.62" x2="169.83" y2="52.38"/></g><g id="Layer_2" data-name="Layer 2"><path class="cls-1" d="M205.67,65c-8.24,4.76-86.6-40.48-86.6-50,0,9.52-78.35,54.76-86.6,50,8.25,4.76,8.25,95.24,0,100,8.25-4.76,86.6,40.48,86.6,50,0-9.52,78.36-54.76,86.6-50C197.43,160.21,197.43,69.73,205.67,65Z" transform="translate(-31.72 -14.97)"/><path class="cls-1" d="M179.69,80c-5.77,3.33-60.62-28.33-60.62-35,0,6.67-54.85,38.33-60.62,35,5.77,3.33,5.77,66.67,0,70,5.77-3.33,60.62,28.33,60.62,35,0-6.67,54.85-38.33,60.62-35C173.92,146.64,173.92,83.3,179.69,80Z" transform="translate(-31.72 -14.97)"/><path class="cls-1" d="M149.38,97.47C146.5,99.14,119.07,83.3,119.07,80c0,3.33-27.42,19.17-30.31,17.5,2.89,1.67,2.89,33.33,0,35,2.89-1.67,30.31,14.17,30.31,17.5,0-3.33,27.43-19.17,30.31-17.5C146.5,130.8,146.5,99.14,149.38,97.47Z" transform="translate(-31.72 -14.97)"/></g><g id="Layer_3" data-name="Layer 3"><text class="cls-2" transform="translate(203.96 116.36)">kumonosu blog</text></g></svg>