<?xml version="1.0" encoding="UTF-8" standalone="no"?>
<!-- Created with Inkscape (http://www.inkscape.org/) -->

<svg
   xmlns:dc="http://purl.org/dc/elements/1.1/"
   xmlns:cc="http://creativecommons.org/ns#"
   xmlns:rdf="http://www.w3.org/1999/02/22-rdf-syntax-ns#"
   xmlns:svg="http://www.w3.org/2000/svg"
   xmlns="http://www.w3.org/2000/svg"
   xmlns:sodipodi="http://sodipodi.sourceforge.net/DTD/sodipodi-0.dtd"
   xmlns:inkscape="http://www.inkscape.org/namespaces/inkscape"
   width="1500"
   height="400"
   viewBox="0 0 396.875 105.83334"
   version="1.1"
   id="svg8"
   inkscape:export-filename="/Applications/MAMP/htdocs/wordpress/blog/wp-content/themes/kumonosu_blog/images/twitter_cover.png"
   inkscape:export-xdpi="73.631477"
   inkscape:export-ydpi="73.631477"
   inkscape:version="0.92.2 5c3e80d, 2017-08-06"
   sodipodi:docname="twitter_cover.svg">
  <defs
     id="defs2">
    <style
       id="style262">.cls-1{fill:none;stroke:#000;stroke-miterlimit:10;stroke-width:3px;}.cls-2{font-size:72px;font-family:Almondia-Medium, Almondia;}</style>
  </defs>
  <sodipodi:namedview
     id="base"
     pagecolor="#ffffff"
     bordercolor="#666666"
     borderopacity="1.0"
     inkscape:pageopacity="0.0"
     inkscape:pageshadow="2"
     inkscape:zoom="0.49497475"
     inkscape:cx="744.44584"
     inkscape:cy="265.43311"
     inkscape:document-units="px"
     inkscape:current-layer="layer4"
     showgrid="false"
     units="px"
     width="1500px"
     inkscape:window-width="1280"
     inkscape:window-height="690"
     inkscape:window-x="0"
     inkscape:window-y="1"
     inkscape:window-maximized="1" />
  <metadata
     id="metadata5">
    <rdf:RDF>
      <cc:Work
         rdf:about="">
        <dc:format>image/svg+xml</dc:format>
        <dc:type
           rdf:resource="http://purl.org/dc/dcmitype/StillImage" />
        <dc:title></dc:title>
      </cc:Work>
    </rdf:RDF>
  </metadata>
  <g
     inkscape:label="background"
     inkscape:groupmode="layer"
     id="layer1"
     transform="translate(0,-191.16665)"
     style="display:inline">
    <rect
       style="fill:#ffffff;stroke-width:0.26458335"
       id="rect98"
       width="396.875"
       height="105.83334"
       x="6.2499998e-06"
       y="191.16664"
       inkscape:export-xdpi="73.631477"
       inkscape:export-ydpi="73.631477" />
  </g>
  <g
     inkscape:groupmode="layer"
     id="layer4"
     inkscape:label="object 1"
     transform="translate(0,-26.458334)">
    <rect
       style="opacity:1;fill:#fa7268;fill-opacity:1;stroke:none;stroke-width:1.62423122"
       id="rect4826"
       width="396.875"
       height="10.583334"
       x="2.4999999e-06"
       y="121.70834" />
  </g>
  <g
     inkscape:groupmode="layer"
     id="layer2"
     inkscape:label="object"
     transform="translate(0,-26.458334)">
    <g
       id="g302"
       transform="matrix(0.26458334,0,0,0.26458334,516.20588,273.26885)">
      <g
         id="g314"
         transform="matrix(1.5973119,0,0,1.5973119,742.68101,469.21197)">
        <g
           transform="translate(-1527.3506,-852.56874)"
           id="Layer_1"
           data-name="Layer 1">
          <line
             style="fill:none;stroke:#000000;stroke-width:3px;stroke-miterlimit:10"
             class="cls-1"
             x1="87.349998"
             y1="4.7600002"
             x2="87.349998"
             y2="195.24001"
             id="line268" />
          <line
             style="fill:none;stroke:#000000;stroke-width:3px;stroke-miterlimit:10"
             class="cls-1"
             x1="4.8699999"
             y1="52.380001"
             x2="169.83"
             y2="147.62"
             id="line270" />
          <line
             style="fill:none;stroke:#000000;stroke-width:3px;stroke-miterlimit:10"
             class="cls-1"
             x1="4.8699999"
             y1="147.62"
             x2="169.83"
             y2="52.380001"
             id="line272" />
        </g>
        <g
           transform="translate(-1527.3506,-852.56874)"
           id="Layer_2"
           data-name="Layer 2">
          <path
             style="fill:none;stroke:#000000;stroke-width:3px;stroke-miterlimit:10"
             inkscape:connector-curvature="0"
             class="cls-1"
             d="m 205.67,65 c -8.24,4.76 -86.6,-40.48 -86.6,-50 0,9.52 -78.35,54.76 -86.6,50 8.25,4.76 8.25,95.24 0,100 8.25,-4.76 86.6,40.48 86.6,50 0,-9.52 78.36,-54.76 86.6,-50 -8.24,-4.79 -8.24,-95.27 0,-100 z"
             transform="translate(-31.72,-14.97)"
             id="path275" />
          <path
             style="fill:none;stroke:#000000;stroke-width:3px;stroke-miterlimit:10"
             inkscape:connector-curvature="0"
             class="cls-1"
             d="m 179.69,80 c -5.77,3.33 -60.62,-28.33 -60.62,-35 0,6.67 -54.85,38.33 -60.62,35 5.77,3.33 5.77,66.67 0,70 5.77,-3.33 60.62,28.33 60.62,35 0,-6.67 54.85,-38.33 60.62,-35 -5.77,-3.36 -5.77,-66.7 0,-70 z"
             transform="translate(-31.72,-14.97)"
             id="path277" />
          <path
             style="fill:none;stroke:#000000;stroke-width:3px;stroke-miterlimit:10"
             inkscape:connector-curvature="0"
             class="cls-1"
             d="M 149.38,97.47 C 146.5,99.14 119.07,83.3 119.07,80 c 0,3.33 -27.42,19.17 -30.31,17.5 2.89,1.67 2.89,33.33 0,35 2.89,-1.67 30.31,14.17 30.31,17.5 0,-3.33 27.43,-19.17 30.31,-17.5 -2.88,-1.7 -2.88,-33.36 0,-35.03 z"
             transform="translate(-31.72,-14.97)"
             id="path279" />
        </g>
        <g
           transform="translate(-1527.3506,-852.56874)"
           id="Layer_3"
           data-name="Layer 3">
          <text
             style="font-size:72px;font-family:Almondia-Medium, Almondia"
             class="cls-2"
             transform="translate(203.96,116.36)"
             id="text282">kumonosu blog</text>
        </g>
      </g>
    </g>
  </g>
</svg>
